<?xml version="1.0" standalone="no"?>
<!DOCTYPE svg PUBLIC "-//W3C//DTD SVG 20010904//EN"
 "http://www.w3.org/TR/2001/REC-SVG-20010904/DTD/svg10.dtd">
<svg version="1.0" xmlns="http://www.w3.org/2000/svg"
 width="540.000000pt" height="540.000000pt" viewBox="0 0 540.000000 540.000000"
 preserveAspectRatio="xMidYMid meet">
<metadata>
Created by potrace 1.14, written by Peter Selinger 2001-2017
</metadata>
<g transform="translate(0.000000,540.000000) scale(0.100000,-0.100000)"
fill="#000000" stroke="none">
<path d="M0 4370 l0 -1030 29 0 c30 0 41 -14 41 -55 0 -38 -21 -75 -47 -81
l-23 -6 0 -578 c0 -453 3 -579 13 -583 10 -4 10 -6 0 -6 -10 -1 -13 -174 -13
-831 0 -818 0 -831 19 -820 35 18 74 11 108 -20 18 -16 33 -33 33 -36 0 -7
-100 2 -138 12 l-22 6 0 -171 0 -171 620 0 621 0 -29 28 c-16 15 -49 46 -73
68 -65 61 -94 104 -71 104 5 0 7 14 4 30 -3 18 2 38 10 48 54 65 61 196 13
273 -32 53 -66 69 -142 69 -35 0 -54 -5 -65 -17 -20 -25 -88 -142 -88 -154 0
-5 -3 -9 -7 -9 -5 0 -21 -21 -37 -48 -36 -57 -66 -92 -80 -92 -15 0 -12 239 5
390 14 132 14 183 -1 210 -16 29 -12 72 10 108 19 32 24 34 65 30 25 -2 45 0
45 4 0 5 18 8 40 8 29 0 40 -4 40 -15 0 -11 -11 -15 -40 -15 -42 0 -39 4 -55
-74 -3 -15 0 -26 10 -30 8 -3 14 -2 12 3 -1 4 13 25 31 46 24 27 36 34 42 25
9 -14 14 -7 25 35 14 50 14 55 2 55 -7 0 3 14 20 30 18 16 33 34 33 40 0 5 18
10 40 10 29 0 40 -4 40 -15 0 -23 16 -18 34 10 9 14 23 25 31 25 8 0 15 4 15
9 0 5 13 11 29 14 16 3 36 13 44 22 9 8 33 15 56 15 44 0 94 25 118 59 15 22
15 22 44 -24 16 -25 29 -50 29 -55 0 -10 21 -51 30 -60 3 -3 16 -43 29 -90 13
-47 36 -121 51 -165 16 -44 31 -96 35 -115 4 -19 16 -54 26 -77 11 -23 19 -47
19 -53 0 -6 7 -25 16 -42 13 -25 14 -38 4 -75 -9 -38 -8 -49 5 -69 9 -14 13
-29 9 -35 -10 -17 18 -70 42 -79 17 -7 23 -17 23 -37 0 -15 3 -45 7 -65 6 -35
4 -39 -22 -48 -16 -6 -31 -15 -34 -19 -3 -4 -21 -18 -40 -31 -62 -43 -73 -63
-50 -86 23 -23 -13 -32 -80 -22 -36 5 -89 7 -119 3 -52 -5 -111 -31 -111 -47
0 -4 414 -8 920 -8 659 0 920 3 920 11 0 6 -9 13 -20 16 -11 3 -20 9 -20 14 0
5 -9 9 -20 9 -11 0 -28 8 -38 17 -10 10 -29 19 -43 21 -13 1 -43 12 -66 23
-23 11 -47 18 -53 14 -6 -4 -17 -2 -24 5 -8 6 -25 13 -37 16 -13 2 -46 9 -74
15 -27 6 -70 15 -94 19 -23 4 -47 13 -51 21 -5 7 -12 10 -15 7 -4 -4 -35 8
-69 26 -34 18 -73 36 -87 39 -14 3 -54 26 -89 49 -36 24 -78 45 -95 48 -24 4
-35 15 -56 57 -15 29 -37 65 -51 81 -13 16 -31 44 -38 62 -12 30 -12 34 8 49
20 16 21 18 7 94 -7 43 -19 85 -27 94 -8 10 -13 54 -15 132 -5 236 -10 327
-18 365 -8 38 -7 38 16 26 13 -7 26 -16 29 -20 5 -7 98 -89 143 -127 14 -12
46 -35 69 -50 24 -15 51 -35 60 -44 10 -10 34 -30 55 -46 21 -15 40 -30 43
-33 3 -3 21 -14 40 -24 19 -11 59 -35 89 -55 119 -78 199 -121 226 -121 8 0
17 -5 20 -10 3 -6 26 -15 51 -21 24 -6 44 -15 44 -20 0 -7 44 -11 115 -10 80
1 238 -21 253 -35 9 -9 24 -13 36 -10 12 3 24 6 29 6 4 0 7 8 7 18 0 9 10 30
23 46 l23 28 16 -24 c9 -14 24 -61 34 -105 18 -84 14 -139 -10 -130 -10 4 -12
-1 -8 -15 3 -14 1 -19 -6 -14 -7 4 -22 0 -34 -8 l-22 -16 27 0 c32 0 34 -10 7
-35 -27 -24 -25 -35 5 -35 31 0 32 -20 4 -46 -11 -10 -25 -27 -30 -36 -8 -16
-6 -17 23 -11 31 6 32 5 18 -12 -8 -10 -28 -24 -45 -31 -30 -13 -30 -13 20
-14 68 -1 91 -15 48 -31 -39 -13 -43 -29 -9 -29 27 0 42 -15 26 -25 -6 -4 -8
-11 -4 -16 3 -5 0 -16 -6 -24 -9 -11 -9 -15 -1 -15 18 0 13 -30 -7 -37 -9 -4
-31 -17 -49 -31 -21 -15 -47 -24 -75 -25 -32 -2 -44 -6 -46 -20 -3 -16 14 -17
260 -17 145 0 257 4 250 8 -7 5 -10 16 -6 26 8 22 -10 36 -48 36 -53 0 -81 25
-35 32 24 3 30 29 8 36 -8 3 -11 0 -7 -7 4 -6 1 -11 -8 -11 -9 0 -16 5 -16 10
0 6 -22 10 -49 10 -28 0 -52 4 -56 9 -8 15 29 31 69 31 19 0 38 5 41 10 3 6
-2 10 -11 10 -16 0 -16 2 1 20 18 20 18 21 0 34 -18 13 -18 15 -2 30 26 26 36
11 32 -49 -2 -42 1 -55 11 -55 8 0 14 4 14 9 0 5 11 12 25 15 31 8 32 34 5 95
-11 24 -20 52 -20 62 0 10 -5 19 -12 19 -6 0 -4 8 7 20 9 10 22 18 29 17 6 -1
10 4 9 10 -4 16 19 17 35 1 8 -8 12 -9 12 -1 0 6 -5 13 -12 15 -8 3 -7 11 4
27 9 12 14 31 11 41 -3 10 2 33 10 52 15 34 38 117 61 228 25 113 35 125 35
43 1 -40 5 -73 10 -73 5 0 20 14 33 30 46 60 70 85 64 68 -4 -13 0 -18 12 -18
17 0 124 128 130 156 2 8 9 14 15 14 18 0 44 56 57 121 10 53 14 58 52 75 62
28 118 85 128 130 10 43 4 142 -11 181 -14 38 -12 41 31 41 39 1 40 0 40 -35
0 -28 8 -44 35 -70 19 -19 35 -38 35 -43 0 -6 7 -10 15 -10 11 0 15 11 15 40
0 36 3 40 25 40 18 0 25 5 25 19 0 38 11 51 46 51 32 0 34 -2 34 -35 0 -32 2
-35 30 -35 l30 0 0 -72 c0 -79 -25 -168 -47 -168 -7 0 -13 -11 -13 -26 0 -24
2 -26 34 -20 83 16 113 -40 71 -132 -30 -65 -29 -58 -9 -66 10 -4 31 7 57 29
22 19 46 34 51 32 15 -5 20 -67 7 -80 -12 -12 -15 -58 -3 -56 44 7 44 -51 0
-123 -18 -29 -36 -54 -40 -56 -4 -2 -8 -15 -8 -29 0 -14 -8 -48 -17 -75 -17
-47 -17 -50 0 -62 9 -7 17 -18 17 -24 0 -6 8 -16 18 -21 28 -17 -2 -12 -37 5
-22 11 -46 15 -74 11 -23 -3 -75 -1 -115 4 -41 6 -75 9 -77 7 -8 -9 30 -124
43 -132 9 -5 26 -19 38 -31 11 -11 26 -19 32 -17 7 2 12 -1 12 -7 0 -6 -12
-11 -26 -11 -14 0 -23 -4 -19 -10 3 -6 14 -10 25 -10 10 0 20 -7 24 -15 3 -8
17 -20 31 -27 14 -6 25 -20 25 -31 0 -13 5 -17 16 -13 12 5 15 2 10 -10 -3 -8
-6 -21 -6 -28 0 -7 -14 -31 -31 -52 -17 -22 -35 -48 -41 -59 -5 -11 -15 -31
-23 -45 -8 -14 -15 -33 -15 -42 0 -17 24 -18 355 -18 l355 0 0 419 0 420 -37
3 -38 3 1 47 c0 55 31 118 56 118 17 0 18 101 18 2195 0 2188 0 2195 -20 2195
-24 0 -25 -16 -6 -56 20 -40 10 -124 -18 -156 -24 -28 -50 -38 -117 -45 -39
-4 -51 0 -76 21 -17 14 -33 23 -37 19 -3 -3 -6 -1 -6 5 0 7 -9 21 -20 32 -17
17 -20 33 -20 100 l0 80 -1122 0 -1123 0 40 -21 c96 -51 117 -85 79 -124 -21
-20 -51 -14 -107 23 -65 42 -70 49 -64 88 l6 34 -1395 0 -1394 0 0 -1030z
m140 970 c0 -40 -61 -59 -75 -23 -9 26 30 56 56 43 10 -6 19 -15 19 -20z
m4347 -75 c18 -38 14 -58 -20 -80 -21 -13 -30 -14 -63 -3 -34 11 -39 17 -42
47 -3 26 2 39 20 56 46 43 78 37 105 -20z m-553 -28 c21 -16 18 -55 -5 -70
-47 -29 -101 37 -55 68 25 18 37 19 60 2z m-1920 -40 c38 -27 -2 -95 -41 -71
-24 15 -28 48 -8 68 20 19 26 20 49 3z m2914 -197 c26 -25 29 -66 5 -92 -35
-39 -93 -8 -93 49 0 58 47 81 88 43z m-657 -80 c41 -22 11 -78 -36 -66 -30 8
-35 49 -7 65 21 13 20 13 43 1z m-1321 -23 c0 -2 -9 -14 -20 -27 -11 -12 -17
-26 -14 -31 2 -5 -3 -23 -12 -40 -12 -25 -13 -33 -3 -39 18 -12 33 -3 46 28
15 33 61 62 98 62 51 0 115 -48 115 -87 0 -27 -12 -29 -34 -8 -42 43 -166 21
-166 -29 0 -21 9 -25 88 -44 48 -12 96 -22 106 -22 34 0 63 -68 37 -85 -5 -3
-15 -22 -22 -43 -15 -46 -23 -52 -79 -52 -30 0 -40 -3 -31 -9 22 -14 -20 -31
-79 -31 -58 0 -112 24 -150 66 -25 27 -25 27 -3 21 13 -3 26 -1 29 4 3 5 16 9
30 9 13 0 24 5 24 10 0 6 -7 10 -15 10 -18 0 -52 18 -82 44 -26 22 -75 25 -97
7 -10 -8 -13 -24 -11 -45 5 -36 -12 -57 -72 -92 -41 -23 -52 -12 -29 26 20 34
16 37 -19 14 -23 -15 -25 -15 -31 0 -23 61 53 169 126 179 39 5 100 40 100 57
0 24 -35 42 -77 38 -23 -2 -43 -1 -43 3 0 3 12 17 28 31 27 25 102 47 102 30
0 -5 12 -9 27 -8 19 1 29 7 32 21 2 11 8 23 15 27 11 8 86 11 86 5z m1160
-101 c6 -8 23 -16 37 -18 34 -4 52 -32 37 -55 -15 -25 -42 -28 -64 -8 -10 9
-22 15 -27 12 -18 -11 -53 13 -53 36 0 42 44 63 70 33z m673 -108 c14 -22 -7
-48 -39 -48 -13 0 -24 2 -24 4 0 2 -3 11 -6 19 -7 18 23 49 44 45 8 -2 20 -10
25 -20z m-939 -4 c21 -8 20 -41 -1 -52 -26 -13 -43 -4 -43 23 0 13 6 26 13 28
6 3 13 6 14 6 1 1 8 -2 17 -5z m-1076 -199 c16 -35 17 -35 -26 -35 -52 0 -58
9 -25 37 35 28 37 28 51 -2z m-180 -48 c15 -2 58 -5 96 -6 39 -1 74 -5 79 -8
10 -6 154 -15 260 -16 37 0 67 -1 67 -3 0 -2 -15 -11 -32 -20 -40 -21 -174
-21 -346 -2 -19 3 -26 -4 -38 -37 -34 -91 -43 -126 -37 -160 6 -37 4 -39 -45
-29 -42 9 -52 38 -52 162 0 102 10 178 18 141 1 -9 15 -19 30 -22z m612 -3 c0
-14 -96 -144 -107 -144 -19 0 -28 -42 -10 -51 24 -14 9 -47 -27 -58 -54 -16
-332 -34 -378 -24 -13 3 -16 11 -12 36 7 42 25 87 33 87 4 0 15 16 24 35 9 20
26 37 39 40 13 3 67 -1 120 -9 85 -13 104 -13 145 -1 27 8 62 27 78 43 45 42
95 67 95 46z m-2742 -236 c4 -36 -36 -65 -67 -48 -25 13 -27 37 -4 62 25 28
67 20 71 -14z m1580 -364 c6 -11 11 -13 16 -5 4 6 16 11 26 11 25 0 33 -32 22
-90 -6 -35 -12 -46 -28 -48 -24 -3 -34 19 -34 77 0 33 -1 33 -19 17 -10 -9
-25 -14 -35 -10 -16 6 -22 44 -9 57 12 13 52 7 61 -9z m-1380 -86 c33 -33 -3
-103 -50 -96 -40 5 -36 81 5 98 30 12 31 12 45 -2z m4396 -271 c24 -18 13 -37
-39 -71 -55 -34 -95 -30 -95 10 0 20 9 29 53 49 61 29 58 29 81 12z m-284
-312 c0 -8 -9 -31 -19 -52 -11 -21 -23 -55 -26 -75 -8 -40 -27 -64 -45 -53
-17 11 -11 47 15 81 14 18 25 37 25 43 0 6 4 11 9 11 5 0 11 14 15 30 6 30 26
42 26 15z m-330 -23 c31 -15 73 -53 105 -94 30 -39 40 -76 40 -147 0 -64 -5
-85 -29 -133 -43 -85 -85 -117 -179 -138 -31 -7 -57 -18 -57 -23 0 -6 -5 -5
-12 1 -7 6 -29 14 -48 19 -37 10 -38 12 -21 78 19 73 13 135 -24 240 -38 108
-45 172 -20 181 8 4 15 12 15 18 0 8 18 13 52 15 28 1 54 4 57 7 9 9 84 -6
121 -24z m350 -386 c0 -35 -43 -101 -68 -104 -32 -5 -29 33 8 91 31 49 60 56
60 13z m128 -49 c2 -18 -1 -27 -11 -27 -15 0 -27 20 -27 47 0 27 35 9 38 -20z
m-3058 -115 c0 -5 -15 -22 -33 -39 -29 -26 -32 -34 -29 -72 l4 -42 20 21 c13
13 26 19 39 15 15 -5 19 -2 19 15 0 18 3 19 20 10 13 -7 20 -21 20 -39 0 -25
3 -28 28 -23 24 5 25 3 14 -11 -7 -8 -33 -25 -57 -36 -49 -23 -53 -31 -53
-121 0 -44 -7 -87 -22 -128 -18 -49 -21 -72 -15 -110 12 -76 13 -119 5 -133
-10 -15 -14 1 -27 109 -7 58 -5 92 10 168 20 98 17 141 -9 151 -29 11 -38 -14
-35 -102 1 -53 -2 -85 -8 -85 -5 0 -11 -23 -13 -52 -2 -29 -8 -53 -15 -55 -9
-3 -11 24 -6 116 6 118 0 151 -28 151 -15 0 -38 -57 -37 -91 1 -50 -13 -139
-22 -139 -5 0 -6 61 -3 136 l6 136 -26 -17 c-19 -12 -35 -15 -54 -9 -16 4 -36
8 -46 9 -26 3 -55 33 -62 66 -5 24 -12 29 -36 29 -25 0 -29 4 -29 28 1 25 29
72 45 72 3 0 16 10 28 23 33 35 57 41 57 15 0 -20 4 -21 64 -15 l64 6 7 -44
c3 -25 11 -47 16 -51 6 -4 8 12 3 43 -6 47 -4 51 26 76 28 24 40 27 101 27 38
0 69 -4 69 -8z m3058 -14 c21 -21 13 -53 -24 -97 -28 -33 -42 -41 -63 -39 -20
2 -27 9 -29 31 -4 37 58 111 99 116 3 1 10 -4 17 -11z m-2630 -102 c4 -20 -22
-86 -51 -128 -21 -32 -52 -36 -66 -10 -9 17 28 109 59 147 17 21 54 15 58 -9z
m-284 -92 c9 -24 7 -28 -9 -14 -17 14 -20 30 -6 30 5 0 12 -7 15 -16z m345
-42 c7 -14 5 -28 -7 -53 -13 -27 -24 -35 -49 -37 -18 -2 -33 -1 -33 3 0 11 32
70 48 88 19 22 29 22 41 -1z m-912 -14 c-3 -8 -6 -5 -6 6 -1 11 2 17 5 13 3
-3 4 -12 1 -19z m574 -32 c-6 -7 -8 -16 -5 -19 4 -3 -2 -29 -12 -56 -14 -41
-15 -55 -6 -73 10 -19 11 -76 2 -85 -1 -2 -3 -18 -4 -35 -1 -22 5 -39 19 -49
18 -15 18 -19 5 -43 -7 -15 -21 -25 -29 -24 -20 4 -28 75 -25 218 3 104 12
148 36 174 16 17 33 9 19 -8z m229 -73 c0 -9 -3 -14 -6 -10 -4 3 -23 -5 -43
-18 -44 -31 -61 -32 -35 -4 15 16 53 39 82 48 1 1 2 -6 2 -16z m638 -15 c14
-14 16 -52 2 -43 -6 3 -15 -6 -21 -22 l-12 -28 -6 25 c-8 27 -27 29 -101 9
-23 -5 -36 -5 -38 1 -2 6 -26 7 -60 3 -49 -5 -55 -4 -49 10 4 11 1 17 -8 18
-17 2 -18 2 -60 15 -24 7 -6 10 85 15 215 10 256 9 268 -3z m1330 -35 c26 -70
26 -70 30 -35 3 33 16 42 26 20 5 -10 7 -10 12 0 3 6 14 12 25 12 10 0 19 7
19 15 0 8 5 15 10 15 6 0 10 -18 10 -40 0 -22 -4 -40 -10 -40 -5 0 -10 -6 -10
-14 0 -10 22 -16 80 -21 69 -6 80 -10 80 -26 0 -10 7 -19 15 -19 8 0 15 -5 15
-12 0 -9 3 -9 12 0 7 7 20 12 31 12 10 0 16 4 13 8 -3 5 11 8 32 7 31 -2 37
-6 40 -27 2 -14 14 -31 28 -38 23 -13 24 -16 24 -132 0 -114 -1 -120 -25 -142
-31 -29 -31 -36 -1 -36 25 0 76 -39 76 -57 0 -6 -9 -22 -21 -37 -17 -21 -29
-26 -68 -26 -57 0 -71 12 -71 61 0 32 4 39 28 47 24 9 24 11 5 11 -12 1 -24
-3 -28 -9 -3 -5 -21 -7 -41 -4 -26 3 -33 1 -28 -8 6 -10 4 -11 -7 0 -7 6 -35
12 -61 12 -40 0 -48 -3 -48 -18 0 -34 -13 -33 -34 2 -12 19 -40 59 -63 90 -24
30 -43 61 -43 67 0 7 -9 38 -19 68 -47 134 -77 321 -52 321 5 0 13 -12 19 -27z
m-1880 -39 c60 -16 -17 -86 -95 -86 -18 0 -36 -4 -39 -9 -7 -12 -44 -11 -44 1
0 6 12 15 28 21 15 6 38 21 52 33 24 22 59 45 70 46 3 0 15 -3 28 -6z m372
-25 c0 -16 -65 -39 -107 -38 -26 1 -30 3 -13 6 37 6 80 24 80 34 0 5 9 9 20 9
11 0 20 -5 20 -11z m96 -3 c8 -8 14 -28 14 -45 0 -26 -4 -31 -22 -30 -13 0
-17 3 -10 6 6 2 12 11 12 19 0 17 -5 17 -29 2 -10 -6 -26 -8 -36 -4 -17 6 -17
7 0 26 10 11 24 20 32 20 7 0 13 5 13 10 0 14 9 12 26 -4z m2224 -56 c13 -23
-14 -83 -55 -124 -29 -30 -30 -30 -56 -16 -35 19 -20 70 41 133 30 32 55 34
70 7z m-2120 -20 c0 -5 -4 -10 -10 -10 -5 0 -10 5 -10 10 0 6 5 10 10 10 6 0
10 -4 10 -10z m-760 -15 c0 -18 -46 -42 -58 -31 -7 8 33 46 49 46 5 0 9 -7 9
-15z m-477 -35 c3 -11 1 -18 -4 -14 -5 3 -9 12 -9 20 0 20 7 17 13 -6z m87
-34 c7 -24 10 -50 7 -58 -3 -7 -6 -4 -6 8 -1 12 -8 38 -16 57 -17 42 -19 50
-6 43 4 -3 14 -26 21 -50z m1866 39 c23 -12 25 -15 11 -21 -22 -8 -22 -24 1
-24 10 0 23 -5 30 -12 7 -7 15 -8 24 -1 7 5 22 13 32 17 19 7 19 6 1 -14 -10
-11 -20 -18 -23 -15 -3 2 -15 -7 -28 -20 -26 -28 -36 -32 -28 -10 4 8 -1 17
-9 21 -18 7 -59 79 -50 88 8 8 6 8 39 -9z m-3338 -7 c29 -29 6 -98 -33 -98
-44 0 -63 58 -32 98 12 15 49 16 65 0z m2090 0 c-3 -7 -18 -14 -34 -16 -28 -2
-28 -2 -10 13 24 18 49 20 44 3z m-173 -68 c-27 -16 -60 -30 -71 -30 -18 0
-68 -30 -84 -51 -12 -15 -48 -19 -59 -6 -9 12 0 19 48 41 32 14 65 26 73 26 8
0 18 3 22 7 10 10 88 41 106 42 8 0 -7 -13 -35 -29z m-1445 -51 c24 -43 -68
-80 -115 -46 -26 20 -13 63 22 75 34 11 79 -3 93 -29z m4050 -19 l0 -40 -40 0
-40 0 0 40 0 40 40 0 40 0 0 -40z m-2480 2 c0 -10 -185 -102 -205 -102 -7 0
-16 -4 -19 -9 -7 -10 -56 -2 -56 10 0 5 12 11 28 15 46 9 115 36 150 56 28 17
72 35 95 37 4 1 7 -3 7 -7z m2077 -269 c-3 -10 -5 -4 -5 12 0 17 2 24 5 18 2
-7 2 -21 0 -30z m-2898 -33 c15 -8 19 -28 25 -124 8 -122 1 -156 -33 -156 -10
0 -26 12 -35 26 -27 40 -9 264 21 264 2 0 12 -4 22 -10z m3681 -115 c16 -20
-1 -84 -29 -109 -47 -43 -78 10 -45 74 28 53 50 63 74 35z m-276 -162 c11 -27
-14 -44 -49 -34 -17 5 -22 10 -13 10 10 1 23 10 30 21 16 24 24 25 32 3z
m-4519 -154 c5 -16 14 -20 38 -18 48 4 74 -8 88 -43 15 -37 3 -62 -32 -66 -13
-2 -38 -10 -56 -18 -17 -8 -35 -14 -40 -14 -5 0 -16 -9 -26 -20 -24 -28 -34
-25 -57 19 -20 39 -20 39 0 98 27 78 70 109 85 62z m4835 -149 c0 -11 -7 -20
-15 -20 -17 0 -18 2 -9 24 9 23 24 20 24 -4z m-4704 -25 c9 -14 17 -42 18 -62
1 -30 -4 -40 -26 -52 -26 -15 -29 -15 -48 5 -14 14 -23 39 -27 77 l-6 57 36 0
c28 0 40 -6 53 -25z m4764 -406 c0 -5 -10 -9 -21 -9 -18 0 -19 2 -9 15 12 15
30 12 30 -6z m-4670 -11 c38 -41 16 -98 -38 -98 -32 0 -62 29 -62 60 0 27 30
60 55 60 13 0 33 -10 45 -22z m4220 -108 c42 -42 6 -108 -53 -96 -44 9 -58 24
-51 55 15 59 65 80 104 41z m466 -11 c6 -10 0 -26 -26 -79 -9 -18 -48 -26 -62
-12 -9 9 6 48 36 90 11 15 42 16 52 1z m-4887 -86 c11 -24 22 -33 45 -36 17
-2 1 -5 -35 -5 -83 -2 -109 13 -91 53 18 38 62 32 81 -12z m216 -53 c15 -7 10
-9 -22 -9 -24 -1 -43 4 -43 9 0 12 37 12 65 0z m2360 -230 c-3 -5 -10 -10 -16
-10 -5 0 -9 5 -9 10 0 6 7 10 16 10 8 0 12 -4 9 -10z"/>
<path d="M2635 4639 c-10 -15 3 -25 16 -12 7 7 7 13 1 17 -6 3 -14 1 -17 -5z"/>
<path d="M3020 4600 c-15 -9 -5 -30 15 -30 18 0 27 27 11 33 -7 3 -19 2 -26
-3z"/>
<path d="M4598 2042 c-32 -4 -32 -3 -16 -37 15 -33 23 -32 38 5 15 36 14 37
-22 32z"/>
<path d="M4505 1970 c-3 -5 1 -10 10 -10 9 0 13 5 10 10 -3 6 -8 10 -10 10 -2
0 -7 -4 -10 -10z"/>
<path d="M4450 1470 c0 -5 5 -10 10 -10 6 0 10 5 10 10 0 6 -4 10 -10 10 -5 0
-10 -4 -10 -10z"/>
<path d="M4669 1394 c-9 -12 -6 -14 21 -14 20 0 30 4 28 12 -6 17 -35 18 -49
2z"/>
<path d="M4625 1390 c3 -5 8 -10 11 -10 2 0 4 5 4 10 0 6 -5 10 -11 10 -5 0
-7 -4 -4 -10z"/>
<path d="M4683 1016 c-17 -30 -194 -94 -368 -132 -77 -17 -79 -18 -42 -24 21
-4 62 -3 90 2 92 15 271 59 297 72 14 7 51 21 83 31 31 10 57 21 57 25 0 15
-26 27 -67 34 -31 4 -44 2 -50 -8z"/>
<path d="M4240 770 c0 -6 -7 -10 -15 -10 -8 0 -21 -12 -28 -27 -14 -28 -13
-53 3 -53 5 0 28 -18 52 -41 27 -25 49 -38 60 -36 10 3 16 1 12 -4 -3 -5 9 -9
26 -9 l31 0 -22 33 c-13 17 -27 34 -31 35 -4 2 -8 13 -8 24 0 10 -11 34 -26
53 -26 34 -54 52 -54 35z"/>
<path d="M4160 669 c0 -5 5 -7 10 -4 6 3 10 8 10 11 0 2 -4 4 -10 4 -5 0 -10
-5 -10 -11z"/>
<path d="M3170 10 c-20 -6 -14 -8 28 -9 33 -1 51 3 47 9 -7 12 -39 12 -75 0z"/>
</g>
</svg>
