<?xml version="1.0" standalone="no"?>
<!DOCTYPE svg PUBLIC "-//W3C//DTD SVG 20010904//EN"
 "http://www.w3.org/TR/2001/REC-SVG-20010904/DTD/svg10.dtd">
<svg version="1.0" xmlns="http://www.w3.org/2000/svg"
 width="512.000000pt" height="512.000000pt" viewBox="0 0 512.000000 512.000000"
 preserveAspectRatio="xMidYMid meet">
<metadata>
Created by potrace 1.14, written by Peter Selinger 2001-2017
</metadata>
<g transform="translate(0.000000,512.000000) scale(0.100000,-0.100000)"
fill="#000000" stroke="none">
<path d="M2378 5115 c-1 -1 -37 -6 -78 -9 -41 -4 -84 -9 -95 -11 -11 -3 -36
-7 -55 -9 -107 -15 -248 -50 -385 -95 -426 -138 -800 -381 -1110 -723 -318
-350 -548 -828 -620 -1293 -2 -11 -6 -36 -9 -55 -22 -131 -29 -543 -11 -650 3
-19 15 -87 25 -150 166 -989 927 -1804 1907 -2043 106 -26 199 -44 278 -53 28
-3 59 -8 69 -11 31 -9 393 -11 481 -3 79 8 146 16 195 25 14 3 41 7 60 10 29
5 104 22 180 40 206 50 449 154 669 284 575 341 1005 922 1165 1576 13 55 27
116 30 135 3 19 8 46 11 60 3 14 8 48 11 75 3 28 8 61 10 75 12 60 11 441 -2
540 -29 242 -51 341 -119 545 -249 750 -850 1352 -1605 1608 -161 55 -351 100
-475 113 -27 3 -61 8 -75 11 -26 6 -446 14 -452 8z"/>
</g>
</svg>
